<mxfile host="app.diagrams.net" modified="2023-02-04T10:10:11.490Z" agent="5.0 (Macintosh)" etag="49XHfCIhWchnBncVOgFz" version="20.8.16" type="github">
  <diagram name="Page-1" id="sVUmUg4nUePl6Fay0Zd0">
    <mxGraphModel dx="853" dy="548" grid="1" gridSize="10" guides="1" tooltips="1" connect="1" arrows="1" fold="1" page="1" pageScale="1" pageWidth="850" pageHeight="1100" math="0" shadow="0">
      <root>
        <mxCell id="0" />
        <mxCell id="1" parent="0" />
        <mxCell id="OwsEPff93GKYVBjTmgqR-3" value="" style="points=[];aspect=fixed;html=1;align=center;shadow=0;dashed=0;image;image=img/lib/allied_telesis/computer_and_terminals/Personal_Computer.svg;" vertex="1" parent="1">
          <mxGeometry x="240" y="270" width="132.82" height="180" as="geometry" />
        </mxCell>
        <mxCell id="OwsEPff93GKYVBjTmgqR-4" value="" style="points=[];aspect=fixed;html=1;align=center;shadow=0;dashed=0;image;image=img/lib/allied_telesis/computer_and_terminals/Personal_Computer_with_Server.svg;" vertex="1" parent="1">
          <mxGeometry x="590" y="270" width="180" height="180" as="geometry" />
        </mxCell>
        <mxCell id="OwsEPff93GKYVBjTmgqR-5" value="" style="fontColor=#0066CC;verticalAlign=top;verticalLabelPosition=bottom;labelPosition=center;align=center;html=1;outlineConnect=0;fillColor=#CCCCCC;strokeColor=#6881B3;gradientColor=none;gradientDirection=north;strokeWidth=2;shape=mxgraph.networks.usb_stick;rotation=90;" vertex="1" parent="1">
          <mxGeometry x="170" y="330" width="45" height="100" as="geometry" />
        </mxCell>
        <mxCell id="OwsEPff93GKYVBjTmgqR-6" value="" style="sketch=0;aspect=fixed;pointerEvents=1;shadow=0;dashed=0;html=1;strokeColor=none;labelPosition=center;verticalLabelPosition=bottom;verticalAlign=top;align=center;fillColor=#00188D;shape=mxgraph.mscae.enterprise.android_phone" vertex="1" parent="1">
          <mxGeometry x="20" y="560" width="60" height="100" as="geometry" />
        </mxCell>
        <mxCell id="OwsEPff93GKYVBjTmgqR-7" value="" style="points=[[0.005,0.09,0],[0.08,0,0],[0.76,0.25,0],[1,0.92,0],[0.91,0.995,0],[0.57,0.995,0],[0.045,0.955,0],[0.005,0.43,0]];verticalLabelPosition=bottom;sketch=0;html=1;verticalAlign=top;aspect=fixed;align=center;pointerEvents=1;shape=mxgraph.cisco19.3g_4g_indicator;fillColor=#005073;strokeColor=none;" vertex="1" parent="1">
          <mxGeometry x="80" y="500" width="50" height="50" as="geometry" />
        </mxCell>
        <mxCell id="OwsEPff93GKYVBjTmgqR-8" value="" style="points=[[0.005,0.09,0],[0.08,0,0],[0.76,0.25,0],[1,0.92,0],[0.91,0.995,0],[0.57,0.995,0],[0.045,0.955,0],[0.005,0.43,0]];verticalLabelPosition=bottom;sketch=0;html=1;verticalAlign=top;aspect=fixed;align=center;pointerEvents=1;shape=mxgraph.cisco19.3g_4g_indicator;fillColor=#005073;strokeColor=none;rotation=-75;" vertex="1" parent="1">
          <mxGeometry x="100" y="300" width="50" height="50" as="geometry" />
        </mxCell>
        <mxCell id="OwsEPff93GKYVBjTmgqR-9" value="" style="endArrow=classic;startArrow=classic;html=1;rounded=0;" edge="1" parent="1">
          <mxGeometry width="50" height="50" relative="1" as="geometry">
            <mxPoint x="100" y="480" as="sourcePoint" />
            <mxPoint x="100" y="360" as="targetPoint" />
          </mxGeometry>
        </mxCell>
        <mxCell id="OwsEPff93GKYVBjTmgqR-11" value="" style="shape=flexArrow;endArrow=classic;html=1;rounded=0;exitX=1.024;exitY=0.106;exitDx=0;exitDy=0;exitPerimeter=0;endWidth=19;endSize=5.685;" edge="1" parent="1" source="OwsEPff93GKYVBjTmgqR-3">
          <mxGeometry width="50" height="50" relative="1" as="geometry">
            <mxPoint x="380" y="290" as="sourcePoint" />
            <mxPoint x="580" y="290" as="targetPoint" />
          </mxGeometry>
        </mxCell>
        <mxCell id="OwsEPff93GKYVBjTmgqR-12" value="&lt;div&gt;SSH to Attacker port 22&lt;/div&gt;" style="text;html=1;align=center;verticalAlign=middle;resizable=0;points=[];autosize=1;strokeColor=none;fillColor=none;" vertex="1" parent="1">
          <mxGeometry x="390" y="250" width="150" height="30" as="geometry" />
        </mxCell>
        <mxCell id="OwsEPff93GKYVBjTmgqR-15" value="" style="endArrow=classic;html=1;rounded=0;" edge="1" parent="1">
          <mxGeometry width="50" height="50" relative="1" as="geometry">
            <mxPoint x="560" y="290" as="sourcePoint" />
            <mxPoint x="380" y="290" as="targetPoint" />
          </mxGeometry>
        </mxCell>
        <mxCell id="OwsEPff93GKYVBjTmgqR-16" value="Attacker sending commands to victim" style="text;html=1;align=center;verticalAlign=middle;resizable=0;points=[];autosize=1;strokeColor=none;fillColor=none;" vertex="1" parent="1">
          <mxGeometry x="360" y="300" width="220" height="30" as="geometry" />
        </mxCell>
        <mxCell id="OwsEPff93GKYVBjTmgqR-17" value="Attacker" style="text;html=1;align=center;verticalAlign=middle;resizable=0;points=[];autosize=1;strokeColor=none;fillColor=none;" vertex="1" parent="1">
          <mxGeometry x="655" y="455" width="70" height="30" as="geometry" />
        </mxCell>
        <mxCell id="OwsEPff93GKYVBjTmgqR-18" value="Victim" style="text;html=1;align=center;verticalAlign=middle;resizable=0;points=[];autosize=1;strokeColor=none;fillColor=none;" vertex="1" parent="1">
          <mxGeometry x="270" y="455" width="60" height="30" as="geometry" />
        </mxCell>
        <mxCell id="OwsEPff93GKYVBjTmgqR-19" value="Bad USB" style="text;html=1;align=center;verticalAlign=middle;resizable=0;points=[];autosize=1;strokeColor=none;fillColor=none;" vertex="1" parent="1">
          <mxGeometry x="145" y="400" width="70" height="30" as="geometry" />
        </mxCell>
        <mxCell id="OwsEPff93GKYVBjTmgqR-20" value="Attacker Android Phone Controlling Bad USB" style="text;html=1;align=center;verticalAlign=middle;resizable=0;points=[];autosize=1;strokeColor=none;fillColor=none;" vertex="1" parent="1">
          <mxGeometry x="80" y="630" width="260" height="30" as="geometry" />
        </mxCell>
      </root>
    </mxGraphModel>
  </diagram>
</mxfile>
